<svg width="530" height="530" viewBox="0 0 530 530" fill="none" xmlns="http://www.w3.org/2000/svg">
<rect x="188" y="107" width="27" height="271" fill="#EFEFEF"/>
<rect x="214" y="116" width="10" height="27" fill="#EFEFEF"/>
<rect x="233" y="134" width="10" height="27" fill="#EFEFEF"/>
<rect x="224" y="125" width="10" height="27" fill="#EFEFEF"/>
<rect x="242" y="143" width="10" height="27" fill="#EFEFEF"/>
<rect width="10" height="27" transform="matrix(-1 0 0 1 316 116)" fill="#EFEFEF"/>
<rect width="10" height="27" transform="matrix(-1 0 0 1 297 134)" fill="#EFEFEF"/>
<rect width="10" height="27" transform="matrix(-1 0 0 1 306 125)" fill="#EFEFEF"/>
<rect width="10" height="27" transform="matrix(-1 0 0 1 288 143)" fill="#EFEFEF"/>
<rect x="279" y="161" width="9" height="9" fill="#9A9A9A"/>
<rect x="279" y="152" width="9" height="9" fill="#EC273F"/>
<rect width="9" height="9" transform="matrix(1 0 0 -1 188 279)" fill="#6B2643"/>
<rect width="9" height="9" transform="matrix(1 0 0 -1 188 270)" fill="#9A9A9A"/>
<rect width="9" height="9" transform="matrix(1 0 0 -1 188 242)" fill="#9A9A9A"/>
<rect x="197" y="215" width="18" height="9" transform="rotate(90 197 215)" fill="#EC273F"/>
<rect x="188" y="206" width="9" height="9" fill="#EC273F"/>
<rect x="197" y="206" width="9" height="9" fill="#EC273F"/>
<rect x="197" y="197" width="9" height="9" fill="#AC2847"/>
<rect x="188" y="197" width="9" height="9" fill="#6B2643"/>
<rect x="188" y="188" width="9" height="9" fill="#EC273F"/>
<rect x="197" y="170" width="18" height="9" transform="rotate(90 197 170)" fill="#FFE3E3"/>
<rect x="188" y="170" width="27" height="9" transform="rotate(-90 188 170)" fill="#FF7373"/>
<rect x="315" y="107" width="27" height="163" fill="#EFEFEF"/>
<rect x="315" y="287" width="27" height="119" fill="#EFEFEF"/>
<rect x="214" y="279" width="10" height="27" fill="#EFEFEF"/>
<rect x="224" y="288" width="10" height="27" fill="#EFEFEF"/>
<rect x="233" y="297" width="10" height="27" fill="#EFEFEF"/>
<rect x="242" y="306" width="10" height="27" fill="#EFEFEF"/>
<rect x="234" y="297" width="9" height="9" fill="#858585"/>
<rect x="278" y="342" width="10" height="27" fill="#EFEFEF"/>
<rect x="297" y="360" width="10" height="27" fill="#EFEFEF"/>
<rect x="288" y="351" width="10" height="27" fill="#EFEFEF"/>
<rect x="306" y="369" width="10" height="27" fill="#EFEFEF"/>
<rect x="252" y="61" width="27" height="408" fill="#EFEFEF"/>
<rect x="252" y="61" width="18" height="9" fill="#AC2847"/>
<rect x="261" y="70" width="18" height="9" transform="rotate(90 261 70)" fill="#EC273F"/>
<rect x="261" y="61" width="9" height="9" fill="#6B2643"/>
<rect x="252" y="98" width="9" height="9" fill="#EC273F"/>
<rect x="252" y="107" width="9" height="9" fill="#6B2643"/>
<rect x="252" y="116" width="9" height="9" fill="#FF7373"/>
<rect x="261" y="125" width="18" height="9" transform="rotate(90 261 125)" fill="#FFE3E3"/>
<rect x="342" y="107" width="18" height="9" transform="rotate(90 342 107)" fill="#EC273F"/>
<rect x="333" y="125" width="9" height="9" fill="#AC2847"/>
<rect x="342" y="134" width="18" height="9" transform="rotate(90 342 134)" fill="#FFE3E3"/>
<rect x="270" y="161" width="9" height="9" fill="#6B2643"/>
<rect x="279" y="170" width="18" height="9" transform="rotate(90 279 170)" fill="#AC2847"/>
<rect x="270" y="188" width="9" height="9" fill="#EC273F"/>
<rect x="197" y="107" width="18" height="9" transform="rotate(90 197 107)" fill="#AC2847"/>
<rect x="315" y="261" width="9" height="9" fill="#AC2847"/>
<rect x="324" y="261" width="9" height="9" fill="#9A9A9A"/>
<rect x="324" y="243" width="18" height="9" transform="rotate(90 324 243)" fill="#EC273F"/>
<rect x="324" y="225" width="18" height="9" transform="rotate(90 324 225)" fill="#9A9A9A"/>
<rect x="315" y="287" width="9" height="9" fill="#6B2643"/>
<rect x="324" y="287" width="9" height="9" fill="#AC2847"/>
<rect x="333" y="287" width="9" height="9" fill="#EC273F"/>
<rect x="324" y="296" width="18" height="9" transform="rotate(90 324 296)" fill="#AC2847"/>
<rect x="324" y="296" width="9" height="9" fill="#EC273F"/>
<rect x="324" y="314" width="27" height="9" transform="rotate(90 324 314)" fill="#EC273F"/>
<rect x="315" y="350" width="9" height="9" fill="#EC273F"/>
<rect x="333" y="397" width="9" height="9" fill="#EC273F"/>
<rect x="333" y="388" width="9" height="9" fill="#858585"/>
<rect x="333" y="379" width="9" height="9" fill="#9A9A9A"/>
<rect x="333" y="370" width="9" height="9" fill="#AC2847"/>
<rect x="333" y="361" width="9" height="9" fill="#6B2643"/>
<rect x="279" y="451" width="18" height="9" transform="rotate(90 279 451)" fill="#AC2847"/>
<rect x="261" y="451" width="9" height="9" fill="#AC2847"/>
<rect x="270" y="469" width="18" height="9" transform="rotate(-180 270 469)" fill="#EC273F"/>
<rect x="279" y="451" width="18" height="9" transform="rotate(-180 279 451)" fill="#EC273F"/>
<rect width="18" height="9" transform="matrix(-4.37114e-08 -1 -1 4.37114e-08 279 442)" fill="#AC2847"/>
<rect width="9" height="9" transform="matrix(1 0 0 -1 261 442)" fill="#AC2847"/>
<rect x="270" y="415" width="9" height="9" fill="#6B2643"/>
<rect x="270" y="415" width="18" height="9" transform="rotate(-90 270 415)" fill="#EC273F"/>
<rect width="9" height="9" transform="matrix(1 0 0 -1 188 342)" fill="#AC2847"/>
<rect width="9" height="9" transform="matrix(1 0 0 -1 188 333)" fill="#EC273F"/>
<rect x="188" y="306" width="27" height="9" transform="rotate(-90 188 306)" fill="#EC273F"/>
<rect x="197" y="125" width="18" height="9" transform="rotate(90 197 125)" fill="#EC273F"/>
<rect x="252" y="306" width="9" height="9" fill="#858585"/>
<rect x="243" y="306" width="9" height="9" fill="#9A9A9A"/>
<rect x="224" y="288" width="10" height="9" fill="#6B2643"/>
<rect x="224" y="297" width="10" height="9" fill="#EC273F"/>
<rect x="252" y="297" width="9" height="9" fill="#EC273F"/>
<rect x="252" y="288" width="9" height="9" fill="#AC2847"/>
<rect x="252" y="279" width="9" height="9" fill="#858585"/>
</svg>
